<svg width="82" height="62" viewBox="0 0 82 62" fill="none" xmlns="http://www.w3.org/2000/svg">
<path d="M81.0309 25.0701C79.902 15.2889 74.9215 4.08209 74.7106 3.60909C74.4802 3.09737 73.9919 2.75753 73.4294 2.73018L38.8704 0.640381H38.8587C38.3782 0.640381 37.9173 0.870851 37.6399 1.26929L31.4407 9.96849C30.972 10.6404 31.1204 11.5701 31.7805 12.0466C31.9798 12.195 32.5696 12.7458 32.6204 13.2849C32.6321 13.3943 32.6594 13.7263 32.179 14.2536C30.4602 16.1638 26.9095 16.3317 26.8782 16.3317C26.429 16.3513 25.9993 16.57 25.7298 16.9333L17.6009 27.8823C17.261 28.3432 17.2103 28.9604 17.472 29.4721C17.472 29.4916 18.4017 31.3237 17.3821 32.433C16.304 33.6049 13.1907 34.8119 11.4837 35.3041C11.1439 35.4057 10.8431 35.6127 10.6556 35.9057L0.725904 50.6167C0.264964 51.2885 0.175124 52.1284 0.487624 52.8784C0.796214 53.6284 1.44856 54.1792 2.26882 54.3472L38.1988 61.3277C38.2887 61.3472 38.3902 61.3589 38.4879 61.3589C38.648 61.3589 38.816 61.3277 38.9684 61.2808L54.1094 56.1324C54.5312 55.9918 54.8711 55.6636 55.0312 55.2418C55.1328 54.9722 55.1523 54.6715 55.0898 54.3902C55.4687 54.1519 56.7812 53.5894 60.6992 53.6285C60.7891 53.6285 60.9609 53.6168 61.0898 53.5777C69.5 51.4175 80.4098 47.7886 80.5198 47.7496C81.098 47.5582 81.5081 47.0191 81.5393 46.4098C81.5706 45.9411 82.1683 34.7298 81.0511 25.0508L81.0309 25.0701ZM12.8399 38.0391C14.2618 37.5899 17.9102 36.3086 19.6016 34.4688C21.1914 32.7305 21.0313 30.5 20.5313 29L27.7501 19.2695C29.1993 19.0976 32.4298 18.4687 34.422 16.2578C35.5626 14.9883 35.7032 13.7578 35.6134 12.9492C35.5119 12.0078 35.0744 11.2304 34.6251 10.6601L39.6056 3.67179L71.0036 5.57019L63.3122 17.4292C61.5934 17.8081 55.863 19.2378 53.3434 21.9878C51.4215 24.0776 50.7536 26.8394 51.7145 28.6792C52.0661 29.3511 52.8356 30.3276 54.5426 30.5776L37.0546 56.3476C36.7148 56.8476 36.5546 57.3984 36.5664 57.957L3.70736 51.5781L12.8558 38.0391H12.8399ZM56.3399 28.5977H56.211C55.2305 28.7266 53.9727 28.6758 53.4922 27.7579C52.9336 26.6798 53.4922 24.7774 54.8203 23.336C56.6992 21.2852 61.0898 20.0274 63.1211 19.5274C63.5899 21.1368 64.5117 25.1484 63.0899 28.1054C62.0391 30.3046 60.211 31.2969 58.918 31.1367C57.8594 31.0077 57.4571 30.1172 57.3164 29.3867C57.2148 28.9179 56.8046 28.5859 56.3359 28.5859L56.3399 28.5977ZM54.5196 51.3787C54.5196 49.4803 55.0587 46.3592 58.1485 44.0779C58.3087 43.9568 58.4298 43.8084 58.4884 43.617C58.9181 42.4451 59.7267 41.8162 60.2892 41.7381C60.5704 41.699 60.6603 41.8084 60.6876 41.8396C60.879 42.0779 61.0079 42.9099 60.336 44.4998C60.2775 44.6483 60.2462 44.8084 60.2579 44.9803C60.4884 47.6209 60.3986 49.7811 60.2189 50.6405C57.7189 50.6405 55.8477 50.8904 54.5196 51.3787ZM78.5786 45.2381C76.0005 46.0897 68.7388 48.4295 62.2976 50.1678C62.4382 48.7459 62.407 46.7772 62.2664 45.0467C63.2273 42.6365 62.7976 41.3084 62.2664 40.617C61.7351 39.9373 60.907 39.6287 59.9852 39.7654C58.6571 39.9764 57.3954 41.0935 56.7352 42.6443C52.3758 46.0232 52.3836 50.7732 52.5946 52.6643C52.5165 52.7659 52.4227 52.8557 52.3641 52.9651C52.2352 53.1956 52.1454 53.426 52.0829 53.6448L38.6219 58.2229C38.5515 58.0315 38.5125 57.7737 38.7117 57.4729L56.1997 31.6919C56.8013 32.481 57.6606 32.9927 58.6802 33.1216C58.8521 33.1411 59.0318 33.1529 59.2115 33.1529C61.4107 33.1529 63.6919 31.5045 64.9028 28.9732C66.7309 25.1529 65.4419 20.2115 64.9536 18.6332C64.9536 18.6136 64.9653 18.5941 64.9732 18.5746L72.7427 6.59456C74.1724 10.1141 77.2544 18.2856 78.0708 25.4036C78.9692 33.1731 78.7114 42.2316 78.5903 45.2316L78.5786 45.2381Z" fill="black"/>
<path d="M22.102 36.602C20.4301 36.7739 18.5903 37.5005 16.9301 38.6606C15.2699 39.8208 13.9496 41.3012 13.2192 42.809C12.3989 44.5082 12.3989 46.0902 13.2192 47.2504C13.9302 48.2699 15.1411 48.809 16.688 48.809C16.9185 48.809 17.1568 48.7973 17.399 48.7699C19.0709 48.5981 20.9107 47.8715 22.5709 46.7113C24.2311 45.5511 25.5514 44.0708 26.2818 42.563C27.1021 40.8638 27.1021 39.2817 26.2818 38.1215C25.4732 36.9496 23.9809 36.4106 22.102 36.602ZM24.4731 41.6918C23.9028 42.8832 22.7817 44.1137 21.4145 45.0707C20.0434 46.0317 18.5043 46.6488 17.1957 46.7816C16.0863 46.891 15.2348 46.6527 14.8559 46.1097C14.477 45.5707 14.5473 44.6878 15.0278 43.68C15.5981 42.4886 16.7192 41.2581 18.0864 40.3011C19.4575 39.3402 20.9966 38.723 22.3052 38.5902C23.4146 38.4809 24.2661 38.7309 24.645 39.2621C25.0239 39.8012 24.9536 40.684 24.4731 41.6918Z" fill="black"/>
<path d="M39.6912 45.859C41.2107 44.8004 42.41 43.4606 43.0818 42.0778C43.8435 40.5075 43.8435 39.0466 43.0818 37.9684C41.6326 35.8903 37.863 36.0895 34.5037 38.4372C31.1521 40.777 29.6639 44.2458 31.1131 46.3278C31.7733 47.2692 32.8943 47.7692 34.324 47.7692C34.535 47.7692 34.7537 47.7574 34.9725 47.7379C36.492 47.5895 38.1716 46.9176 39.6912 45.859ZM32.7498 45.1793C32.0701 44.1989 33.16 41.8082 35.6404 40.0699C38.1287 38.3316 40.7498 38.1285 41.4295 39.109C41.7498 39.5699 41.6912 40.3278 41.2694 41.1988C40.7576 42.2574 39.7577 43.359 38.5389 44.2183C37.3201 45.0698 35.9373 45.6285 34.7694 45.7495C33.8006 45.8511 33.0701 45.6403 32.7498 45.1793Z" fill="black"/>
<path d="M69.8012 27.16H69.6919C67.2036 27.16 65.1528 30.2616 65.0005 34.2889C64.852 38.3787 66.7193 41.66 69.2505 41.7498H69.3598C71.8481 41.7498 73.8989 38.6482 74.0512 34.6209C74.1215 32.7693 73.77 30.9998 73.0708 29.6404C72.2817 28.0896 71.1099 27.2107 69.7896 27.1599L69.8012 27.16ZM69.3715 39.75H69.3325C68.1411 39.7109 66.8911 37.3906 67.0044 34.3594C67.1138 31.3594 68.5161 29.1602 69.6958 29.1602H69.7348C70.2934 29.1797 70.8637 29.6915 71.3051 30.5508C71.8442 31.6016 72.1137 33.0625 72.0669 34.5508C71.9575 37.5508 70.5669 39.75 69.3755 39.75H69.3715Z" fill="black"/>
<path d="M41.8522 27.148C42.0123 27.148 42.1725 27.148 42.3326 27.1284C43.481 27.019 44.731 26.519 45.8717 25.7182C48.4615 23.9096 49.5436 21.2885 48.3834 19.6284C47.7819 18.7769 46.692 18.3589 45.3443 18.4878C44.1959 18.5972 42.9459 19.0972 41.8052 19.898C40.6763 20.6871 39.7661 21.6988 39.2661 22.7378C38.688 23.9487 38.688 25.1284 39.2857 25.9878C39.8052 26.7378 40.7271 27.148 41.8443 27.148L41.8522 27.148ZM41.0709 23.6088C41.4225 22.8901 42.11 22.1284 42.9498 21.5386C43.8014 20.9487 44.7389 20.5581 45.5396 20.48C45.6412 20.4682 45.7388 20.4604 45.8404 20.4604C46.2818 20.4604 46.6099 20.5698 46.7506 20.769C47.1021 21.2807 46.481 22.8471 44.7311 24.0698C43.8795 24.6596 42.942 25.0503 42.1413 25.1284C41.5514 25.187 41.1022 25.0776 40.9304 24.8393C40.7585 24.6011 40.8092 24.1401 41.0709 23.6088Z" fill="black"/>
<path d="M41.109 13.5781C41.2183 13.5781 41.3277 13.5781 41.4371 13.5586C42.2183 13.4805 43.0582 13.1484 43.816 12.6172C45.6051 11.3672 46.316 9.50778 45.4762 8.29688C45.027 7.64844 44.195 7.33594 43.2379 7.42579C42.4566 7.50391 41.6168 7.83595 40.859 8.3672C39.0699 9.6172 38.359 11.4766 39.1988 12.6875C39.5972 13.2578 40.2769 13.5781 41.109 13.5781ZM42.0074 10.0195C42.7066 9.53124 43.3355 9.41014 43.648 9.41014C43.7496 9.41014 43.8082 9.42186 43.8394 9.44139C43.8902 9.61327 43.6089 10.3515 42.691 10.9922C41.7691 11.6328 40.9801 11.6406 40.8629 11.5703C40.8121 11.3984 41.0934 10.6601 42.0113 10.0195L42.0074 10.0195Z" fill="black"/>
</svg>
