<svg width="100" height="60" viewBox="0 0 100 60" fill="none" xmlns="http://www.w3.org/2000/svg">
<path d="M63.772 39.7581L63.66 39.8661L63.878 39.4531L63.647 39.8901L64.02 39.5681L63.969 39.6051L63.772 39.7581Z" fill="black"/>
<path d="M99.13 35.6661C99.128 33.7121 99.214 31.7441 99.214 29.7571C99.214 29.1301 99.206 28.5011 99.184 27.8701C99.172 27.5741 99.168 27.2781 99.168 26.9811C99.168 25.5011 99.278 24.0121 99.28 22.4811C99.28 22.4211 99.278 22.3631 99.278 22.3081V22.3051C99.271 21.1641 98.963 20.0961 98.556 19.0951C98.15 18.0951 97.644 17.1571 97.214 16.2761L97.178 16.2941C96.868 15.5981 96.479 14.9361 96.029 14.3171C94.928 12.8061 93.49 11.5221 92.077 10.4871C86.362 6.3121 79.245 4.1971 72.479 2.8341C65.905 1.5061 59.183 0.933105 52.478 0.933105C49.949 0.933105 47.424 1.0141 44.91 1.1681C36.082 1.7091 27.165 3.0891 18.733 5.8941C16.103 6.7701 13.145 7.8321 10.428 9.3031C7.739 10.7601 5.278 12.6191 3.629 15.1171L3.584 15.0781C2.677 16.1381 1.719 17.2641 1.23 18.7241C0.827 19.9291 0.711 21.1751 0.507 22.3151C0.112 24.5391 0.044 26.6491 0.004 28.8621C0.001 28.9841 0 29.1061 0 29.2291C0 32.0141 0.567 34.4461 1.249 37.0991C1.834 39.3811 2.598 41.4681 3.795 43.5371C5.02 45.6381 5.824 47.9901 7.51 50.0591L7.549 50.1071L7.599 50.1451C8.478 50.8041 9.345 51.2541 10.314 51.7021L10.312 51.7001C11.774 52.3811 13.376 52.9551 14.912 53.3921C18.764 54.4921 22.591 55.7631 26.506 56.7771C32.161 58.2451 37.958 58.8121 43.734 59.1861C48.072 59.4621 51.4 59.6111 55.559 59.6111C55.978 59.6111 56.407 59.6091 56.845 59.6061C58.384 59.5951 59.383 59.4821 60.34 59.3761C61.3 59.2701 62.219 59.1691 63.679 59.1691L64.13 59.1661L64.189 58.6581C64.186 57.8961 64.328 57.1031 64.331 56.2631C64.331 56.0291 64.319 55.7921 64.288 55.5511C64.148 54.4831 64.132 53.3851 64.132 52.2681C64.132 51.9451 64.133 51.6191 64.133 51.2911C64.133 51.0781 64.133 50.8651 64.131 50.6511C64.131 50.6031 64.129 50.5531 64.129 50.5021C64.129 50.0181 64.146 49.4361 64.146 48.8561C64.146 48.3291 64.133 47.8041 64.08 47.3401L64.079 47.3241L64.08 47.3381C64.044 47.0351 64.03 46.7301 64.03 46.4331C64.03 45.9541 64.066 45.4961 64.103 45.1041C64.141 44.7081 64.181 44.3911 64.182 44.1291V44.1191V44.1141C64.178 43.6491 64.162 43.1971 64.149 42.7511C68.234 44.6641 72.084 46.9171 76.34 48.7391C79.094 49.9151 81.813 51.2281 84.482 52.5411C85.577 53.0791 86.579 53.7881 87.825 54.3431L88.395 54.2931C89.851 53.2651 91.604 52.2851 93.169 51.1831C94.37 50.3301 95.634 49.4281 96.716 48.3121C97.146 47.8701 97.656 47.3751 98.101 46.7931C98.543 46.2121 98.922 45.5321 99.045 44.7261C99.102 44.3631 99.114 44.0071 99.114 43.6621C99.114 43.2931 99.098 42.9361 99.098 42.5941C99.098 42.3441 99.106 42.1031 99.131 41.8701C99.207 41.1481 99.259 40.4561 99.26 39.7401C99.26 39.4191 99.248 39.0941 99.226 38.7591C99.153 37.7301 99.13 36.7001 99.13 35.6661ZM4.433 15.7441C5.948 13.4121 8.287 11.6201 10.914 10.2001C13.539 8.77911 16.444 7.73111 19.056 6.86311C27.378 4.09411 36.209 2.72411 44.973 2.18611C47.468 2.03411 49.973 1.9531 52.479 1.9531C59.126 1.9531 65.781 2.5221 72.278 3.8351C78.981 5.1811 85.96 7.27611 91.476 11.3111C92.83 12.3001 94.194 13.5261 95.205 14.9171C96.217 16.3101 96.873 17.8521 96.873 19.5081C96.873 19.8761 96.84 20.2511 96.772 20.6331C96.455 22.4011 95.494 23.9641 94.234 25.3711C92.979 26.7771 91.433 28.0171 90.007 29.1321C89.826 29.2751 89.517 29.4771 89.153 29.6971C88.607 30.0311 87.932 30.4141 87.311 30.7741C86.828 31.0561 86.382 31.3201 86.036 31.5511C85.812 31.4381 85.56 31.3291 85.298 31.2281C84.905 31.0791 84.514 30.9531 84.201 30.8921H84.202C82.431 30.5491 80.682 29.6681 78.828 29.0671C76.534 28.3231 74.271 27.7271 72.241 26.6061C70.423 25.6131 68.402 25.2621 66.612 24.6391C65.92 24.4011 65.252 24.0351 64.563 23.6431C63.875 23.2521 63.169 22.8361 62.391 22.5211C61.332 22.0921 60.285 21.5751 59.229 21.0631C57.566 20.2561 55.841 19.7061 54.439 18.7381L52.514 17.4141L53.712 19.4191C54.101 20.0661 54.383 20.8501 54.637 21.6751C54.891 22.4991 55.12 23.3621 55.43 24.1721C56.129 25.9921 56.692 27.4291 57.536 29.2511C57.748 29.7121 57.983 30.2981 58.224 30.8901C58.465 31.4821 58.714 32.0781 58.967 32.5791C59.378 33.3861 59.888 34.0491 60.195 34.7501C60.614 35.6971 61.153 36.5461 61.623 37.3811L61.624 37.3831C61.82 37.7351 62.029 38.0911 62.234 38.4371C62.238 38.4431 62.263 38.4871 62.293 38.5441C62.397 38.7351 62.59 39.1041 62.772 39.4401C58.605 39.6931 54.442 39.9081 50.285 39.9081C47.84 39.9081 45.396 39.8351 42.955 39.6511C35.774 39.1061 28.64 37.6901 21.875 35.2311C16.235 33.1861 10.316 30.4081 6.237 26.0211C4.449 24.1051 3.265 21.8111 3.269 19.5211C3.273 18.2661 3.618 17.0001 4.433 15.7441ZM63.187 58.1531C61.951 58.1731 61.078 58.2671 60.228 58.3621C59.267 58.4691 58.331 58.5751 56.837 58.5871C56.401 58.5901 55.975 58.5921 55.558 58.5921C51.423 58.5921 48.128 58.4461 43.798 58.1681C38.045 57.7971 32.314 57.2321 26.761 55.7911C22.889 54.7881 19.071 53.5201 15.19 52.4111C13.702 51.9881 12.144 51.4281 10.742 50.7751H10.74C9.815 50.3481 9.043 49.9421 8.262 49.3651C6.741 47.4911 5.949 45.2261 4.677 43.0241C3.535 41.0511 2.807 39.0671 2.236 36.8441C1.557 34.2001 1.019 31.8701 1.019 29.2281C1.019 29.1121 1.02 28.9971 1.023 28.8801C1.063 26.6751 1.131 24.6261 1.51 22.4921C1.72 21.2981 1.841 20.1001 2.196 19.0461C2.223 18.9631 2.258 18.8841 2.289 18.8031C2.266 19.0421 2.251 19.2821 2.251 19.5201C2.255 22.1671 3.591 24.6721 5.493 26.7151C9.766 31.3011 15.83 34.1161 21.528 36.1881C28.391 38.6831 35.617 40.1161 42.879 40.6671C45.351 40.8531 47.82 40.9271 50.286 40.9271C54.557 40.9271 58.82 40.7021 63.072 40.4421C63.067 40.5271 63.059 40.6111 63.059 40.6951C63.059 41.1531 63.109 41.6011 63.108 41.9271L63.109 41.9401C63.109 42.6901 63.153 43.4131 63.161 44.1251V44.1301C63.162 44.2761 63.126 44.6061 63.086 45.0071C63.047 45.4121 63.007 45.9031 63.007 46.4341C63.007 46.7631 63.023 47.1091 63.065 47.4601V47.4581C63.112 47.8521 63.126 48.3471 63.124 48.8561C63.124 49.4171 63.109 49.9961 63.109 50.5021C63.109 50.5551 63.109 50.6081 63.109 50.6611C63.112 50.8701 63.112 51.0811 63.112 51.2921C63.112 51.6151 63.11 51.9411 63.11 52.2691C63.11 53.3961 63.127 54.5381 63.276 55.6851C63.3 55.8721 63.311 56.0651 63.311 56.2641C63.312 56.8391 63.224 57.4721 63.187 58.1531ZM84.929 51.6271C82.256 50.3131 79.521 48.9911 76.739 47.8031C72.404 45.9491 68.436 43.5991 64.117 41.6111C64.101 41.2981 64.079 40.9821 64.079 40.6961C64.079 40.4391 64.103 40.2141 64.153 40.0621L64.13 40.0541C64.14 40.0171 64.153 39.9761 64.156 39.9521L64.02 39.5681L63.648 39.8891L63.878 39.4521L63.66 39.8651L63.772 39.7571L63.968 39.6051L64.02 39.5681L64.018 39.5661C64.014 39.5601 63.989 39.5241 63.96 39.4741C63.85 39.2901 63.657 38.9361 63.488 38.6171C63.403 38.4581 63.323 38.3051 63.258 38.1831C63.192 38.0581 63.147 37.9741 63.112 37.9131C62.91 37.5741 62.706 37.2251 62.516 36.8841L62.509 36.8721L62.515 36.8821C62.025 36.0171 61.507 35.1951 61.129 34.3371C60.75 33.4891 60.226 32.8131 59.878 32.1181C59.651 31.6691 59.409 31.0901 59.169 30.5031C58.93 29.9161 58.692 29.3211 58.462 28.8221C57.632 27.0281 57.081 25.6231 56.384 23.8051C56.101 23.0671 55.874 22.2221 55.612 21.3721C55.511 21.0471 55.401 20.7231 55.284 20.4011C56.458 20.9921 57.674 21.4331 58.784 21.9771C59.837 22.4881 60.905 23.0171 62.011 23.4631C62.697 23.7401 63.365 24.1311 64.06 24.5271C64.755 24.9221 65.479 25.3231 66.282 25.6011C68.177 26.2511 70.136 26.6061 71.752 27.4971C73.931 28.6951 76.261 29.2991 78.516 30.0351H78.518C80.271 30.5961 82.051 31.5041 84.009 31.8901L84.011 31.8911C84.216 31.9291 84.585 32.0431 84.936 32.1771C85.172 32.2671 85.403 32.3691 85.581 32.4591C85.571 32.8151 85.56 33.1711 85.56 33.5241C85.561 38.0401 86.324 42.3251 86.784 46.6991C87.012 48.8521 87.367 50.9481 87.509 53.0501C86.661 52.6071 85.855 52.0861 84.929 51.6271ZM98.26 22.3251C98.26 22.3781 98.26 22.4301 98.26 22.4811C98.261 23.9611 98.15 25.4521 98.149 26.9811C98.15 27.2881 98.154 27.5961 98.166 27.9061C98.187 28.5221 98.195 29.1381 98.195 29.7571C98.195 31.7151 98.11 33.6821 98.11 35.6661C98.11 36.7161 98.133 37.7701 98.208 38.8291C98.229 39.1401 98.239 39.4411 98.239 39.7401C98.239 40.4071 98.192 41.0601 98.116 41.7611C98.087 42.0441 98.078 42.3231 98.078 42.5931C98.078 42.9641 98.093 43.3211 98.093 43.6611C98.093 43.9801 98.08 44.2851 98.036 44.5721C97.949 45.1491 97.671 45.6731 97.288 46.1761C96.907 46.6771 96.429 47.1461 95.982 47.6021C94.987 48.6301 93.778 49.5021 92.579 50.3511L92.58 50.3501C91.306 51.2491 89.861 52.0911 88.524 52.9781C88.378 50.8071 88.017 48.6981 87.796 46.5951C87.329 42.1721 86.577 37.9251 86.578 33.5271C86.578 33.1531 86.59 32.7761 86.6 32.4001C86.776 32.2831 86.994 32.1461 87.238 32.0001C87.79 31.6701 88.467 31.2881 89.088 30.9241C89.711 30.5581 90.273 30.2191 90.637 29.9341C92.07 28.8131 93.662 27.5421 94.995 26.0501C96.327 24.5591 97.411 22.8361 97.776 20.8131C97.814 20.5921 97.843 20.3741 97.864 20.1561C98.101 20.8681 98.255 21.5861 98.26 22.3131V22.3251Z" fill="black"/>
</svg>
