<svg xmlns="http://www.w3.org/2000/svg" xmlns:xlink="http://www.w3.org/1999/xlink" version="1.1" x="0px" y="0px" viewBox="0 0 100 125" enable-background="new 0 0 100 100" xml:space="preserve"><g><polygon points="63.772,59.758 63.66,59.866 63.878,59.453 63.647,59.89 64.02,59.568 63.969,59.605  "/><path d="M99.13,55.666c-0.002-1.954,0.084-3.922,0.084-5.909c0-0.627-0.008-1.256-0.03-1.887c-0.012-0.296-0.016-0.592-0.016-0.889   c0-1.48,0.11-2.969,0.112-4.5c0-0.06-0.002-0.118-0.002-0.173v-0.003c-0.007-1.141-0.315-2.209-0.722-3.21   c-0.406-1-0.912-1.938-1.342-2.819l-0.036,0.018c-0.31-0.696-0.699-1.358-1.149-1.977c-1.101-1.511-2.539-2.795-3.952-3.83   c-5.715-4.175-12.832-6.29-19.598-7.653c-6.574-1.328-13.296-1.901-20.001-1.901c-2.529,0-5.054,0.081-7.568,0.235   c-8.828,0.541-17.745,1.921-26.177,4.726c-2.63,0.876-5.588,1.938-8.305,3.409c-2.689,1.457-5.15,3.316-6.799,5.814l-0.045-0.039   c-0.907,1.06-1.865,2.186-2.354,3.646c-0.403,1.205-0.519,2.451-0.723,3.591c-0.395,2.224-0.463,4.334-0.503,6.547   C0.001,48.984,0,49.106,0,49.229c0,2.785,0.567,5.217,1.249,7.87c0.585,2.282,1.349,4.369,2.546,6.438   c1.225,2.101,2.029,4.453,3.715,6.522l0.039,0.048l0.05,0.038c0.879,0.659,1.746,1.109,2.715,1.557L10.312,71.7   c1.462,0.681,3.064,1.255,4.6,1.692c3.852,1.1,7.679,2.371,11.594,3.385c5.655,1.468,11.452,2.035,17.228,2.409   c4.338,0.276,7.666,0.425,11.825,0.425c0.419,0,0.848-0.002,1.286-0.005c1.539-0.011,2.538-0.124,3.495-0.23   c0.96-0.106,1.879-0.207,3.339-0.207l0.451-0.003l0.059-0.508c-0.003-0.762,0.139-1.555,0.142-2.395   c0-0.234-0.012-0.471-0.043-0.712c-0.14-1.068-0.156-2.166-0.156-3.283c0-0.323,0.001-0.649,0.001-0.977   c0-0.213,0-0.426-0.002-0.64V70.65c0-0.048-0.002-0.097-0.002-0.148c0-0.484,0.017-1.066,0.017-1.646   c0-0.527-0.013-1.052-0.066-1.516l-0.001-0.016l0.001,0.014c-0.036-0.303-0.05-0.608-0.05-0.905c0-0.479,0.036-0.937,0.073-1.329   c0.038-0.396,0.078-0.713,0.079-0.975v-0.01v-0.005c-0.004-0.465-0.02-0.917-0.033-1.363c4.085,1.913,7.935,4.166,12.191,5.988   c2.754,1.176,5.473,2.489,8.142,3.802c1.095,0.538,2.097,1.247,3.343,1.802l0.57-0.05c1.456-1.028,3.209-2.008,4.774-3.11h0.001   c1.201-0.853,2.464-1.755,3.546-2.871c0.43-0.442,0.94-0.937,1.385-1.519c0.442-0.581,0.821-1.261,0.944-2.067   c0.057-0.363,0.069-0.719,0.069-1.064c0-0.369-0.016-0.726-0.016-1.068c0-0.25,0.008-0.491,0.033-0.724   c0.076-0.722,0.128-1.414,0.129-2.13c0-0.321-0.012-0.646-0.034-0.981C99.153,57.73,99.13,56.7,99.13,55.666z M4.433,35.744   c1.515-2.332,3.854-4.124,6.481-5.544c2.625-1.421,5.53-2.469,8.142-3.337c8.322-2.769,17.153-4.139,25.917-4.677   c2.495-0.152,5-0.233,7.506-0.233c6.647,0,13.302,0.569,19.799,1.882c6.703,1.346,13.682,3.441,19.198,7.476   c1.354,0.989,2.718,2.215,3.729,3.606c1.012,1.393,1.668,2.935,1.668,4.591c0,0.368-0.033,0.743-0.101,1.125   c-0.317,1.768-1.278,3.331-2.538,4.738c-1.255,1.406-2.801,2.646-4.227,3.761c-0.181,0.143-0.49,0.345-0.854,0.565   c-0.546,0.334-1.221,0.717-1.842,1.077c-0.483,0.282-0.929,0.546-1.275,0.777c-0.224-0.113-0.476-0.222-0.738-0.323   c-0.393-0.149-0.784-0.275-1.097-0.336h0.001c-1.771-0.343-3.52-1.224-5.374-1.825h0.001c-2.294-0.744-4.558-1.34-6.588-2.461   c-1.818-0.993-3.839-1.344-5.629-1.967c-0.692-0.238-1.36-0.604-2.049-0.996c-0.688-0.391-1.394-0.807-2.172-1.122   c-1.059-0.429-2.106-0.946-3.162-1.458c-1.663-0.807-3.388-1.357-4.79-2.325l-1.925-1.324l1.198,2.005   c0.389,0.647,0.671,1.431,0.925,2.256c0.254,0.824,0.483,1.687,0.793,2.497c0.699,1.82,1.262,3.257,2.106,5.079   c0.212,0.461,0.447,1.047,0.688,1.639s0.49,1.188,0.743,1.689c0.411,0.807,0.921,1.47,1.228,2.171   c0.419,0.947,0.958,1.796,1.428,2.631l0.001,0.002c0.196,0.352,0.405,0.708,0.61,1.054c0.004,0.006,0.029,0.05,0.059,0.107   c0.104,0.191,0.297,0.56,0.479,0.896c-4.167,0.253-8.33,0.468-12.487,0.468c-2.445,0-4.889-0.073-7.33-0.257   c-7.181-0.545-14.315-1.961-21.08-4.42c-5.64-2.045-11.559-4.823-15.638-9.21c-1.788-1.916-2.972-4.21-2.968-6.5   C3.273,38.266,3.618,37,4.433,35.744z M63.187,78.153c-1.236,0.02-2.109,0.114-2.959,0.209c-0.961,0.107-1.897,0.213-3.391,0.225   c-0.436,0.003-0.862,0.005-1.279,0.005c-4.135,0-7.43-0.146-11.76-0.424c-5.753-0.371-11.484-0.936-17.037-2.377   c-3.872-1.003-7.69-2.271-11.571-3.38c-1.488-0.423-3.046-0.983-4.448-1.636H10.74c-0.925-0.427-1.697-0.833-2.478-1.41   c-1.521-1.874-2.313-4.139-3.585-6.341c-1.142-1.973-1.87-3.957-2.441-6.18c-0.679-2.644-1.217-4.974-1.217-7.616   c0-0.116,0.001-0.231,0.004-0.348c0.04-2.205,0.108-4.254,0.487-6.388c0.21-1.194,0.331-2.392,0.686-3.446   c0.027-0.083,0.062-0.162,0.093-0.243c-0.023,0.239-0.038,0.479-0.038,0.717c0.004,2.647,1.34,5.152,3.242,7.195   c4.273,4.586,10.337,7.401,16.035,9.473c6.863,2.495,14.089,3.928,21.351,4.479c2.472,0.186,4.941,0.26,7.407,0.26   c4.271,0,8.534-0.225,12.786-0.485c-0.005,0.085-0.013,0.169-0.013,0.253c0,0.458,0.05,0.906,0.049,1.232l0.001,0.013h-0.001   c0,0.75,0.045,1.473,0.053,2.185v0.005c0.001,0.146-0.035,0.476-0.075,0.877c-0.039,0.405-0.079,0.896-0.079,1.427   c0,0.329,0.016,0.675,0.058,1.026v-0.002c0.047,0.394,0.061,0.889,0.059,1.398c0,0.561-0.015,1.14-0.015,1.646   c0,0.053,0,0.106,0,0.159c0.003,0.209,0.003,0.42,0.003,0.631c0,0.323-0.002,0.649-0.002,0.977c0,1.127,0.017,2.269,0.166,3.416   c0.024,0.187,0.035,0.38,0.035,0.579C63.312,76.839,63.224,77.472,63.187,78.153z M84.929,71.627   c-2.673-1.314-5.408-2.636-8.19-3.824c-4.335-1.854-8.303-4.204-12.622-6.192c-0.016-0.313-0.038-0.629-0.038-0.915   c0-0.257,0.024-0.482,0.074-0.634l-0.023-0.008c0.01-0.037,0.023-0.078,0.026-0.102l-0.136-0.384l-0.372,0.321l0.23-0.437   l-0.218,0.413l0.112-0.108l0.196-0.152l0.051-0.037l-0.001-0.002c-0.004-0.006-0.029-0.042-0.058-0.092   c-0.11-0.184-0.303-0.538-0.472-0.857c-0.085-0.159-0.165-0.312-0.23-0.434c-0.066-0.125-0.111-0.209-0.146-0.27   c-0.202-0.339-0.406-0.688-0.596-1.029l-0.007-0.012l0.006,0.01c-0.49-0.865-1.008-1.687-1.386-2.545   c-0.379-0.848-0.903-1.524-1.251-2.219c-0.227-0.449-0.469-1.028-0.709-1.615c-0.239-0.587-0.477-1.182-0.707-1.681   c-0.83-1.794-1.381-3.199-2.078-5.017c-0.283-0.738-0.51-1.583-0.772-2.433c-0.101-0.325-0.211-0.649-0.328-0.971   c1.174,0.591,2.39,1.032,3.5,1.576c1.053,0.511,2.121,1.04,3.227,1.486c0.686,0.277,1.354,0.668,2.049,1.064   c0.695,0.395,1.419,0.796,2.222,1.074c1.895,0.65,3.854,1.005,5.47,1.896c2.179,1.198,4.509,1.802,6.764,2.538h0.002   c1.753,0.561,3.533,1.469,5.491,1.855l0.002,0.001c0.205,0.038,0.574,0.152,0.925,0.286c0.236,0.09,0.467,0.192,0.645,0.282   c-0.01,0.356-0.021,0.712-0.021,1.065c0.001,4.516,0.764,8.801,1.224,13.175c0.228,2.153,0.583,4.249,0.725,6.351   C86.661,72.607,85.855,72.086,84.929,71.627z M98.26,42.325c0,0.053,0,0.105,0,0.156c0.001,1.48-0.11,2.971-0.111,4.5   c0.001,0.307,0.005,0.615,0.017,0.925c0.021,0.616,0.029,1.232,0.029,1.851c0,1.958-0.085,3.925-0.085,5.909   c0,1.05,0.023,2.104,0.098,3.163c0.021,0.311,0.031,0.612,0.031,0.911c0,0.667-0.047,1.32-0.123,2.021   c-0.029,0.283-0.038,0.562-0.038,0.832c0,0.371,0.015,0.728,0.015,1.068c0,0.319-0.013,0.624-0.057,0.911   c-0.087,0.577-0.365,1.101-0.748,1.604c-0.381,0.501-0.859,0.97-1.306,1.426c-0.995,1.028-2.204,1.9-3.403,2.749l0.001-0.001   c-1.274,0.899-2.719,1.741-4.056,2.628c-0.146-2.171-0.507-4.28-0.728-6.383c-0.467-4.423-1.219-8.67-1.218-13.068   c0-0.374,0.012-0.751,0.022-1.127c0.176-0.117,0.394-0.254,0.638-0.4c0.552-0.33,1.229-0.712,1.85-1.076   c0.623-0.366,1.185-0.705,1.549-0.99c1.433-1.121,3.025-2.392,4.358-3.884c1.332-1.491,2.416-3.214,2.781-5.237   c0.038-0.221,0.067-0.439,0.088-0.657c0.237,0.712,0.391,1.43,0.396,2.157V42.325z"/></g><text x="0" y="115" fill="#000000" font-size="5px" font-weight="bold" font-family="'Helvetica Neue', Helvetica, Arial-Unicode, Arial, Sans-serif">Created by Co-Effect Creative</text><text x="0" y="120" fill="#000000" font-size="5px" font-weight="bold" font-family="'Helvetica Neue', Helvetica, Arial-Unicode, Arial, Sans-serif">from the Noun Project</text></svg>