<svg width="86" height="77" viewBox="0 0 86 77" fill="none" xmlns="http://www.w3.org/2000/svg">
<path fill-rule="evenodd" clip-rule="evenodd" d="M80.0779 0.76612C80.4802 0.73487 80.8357 1.03956 80.8669 1.44581L85.4685 62.2268C85.4842 62.4221 85.4178 62.6135 85.2928 62.762C85.1639 62.9104 84.9842 63.0003 84.7889 63.0159L67.9339 64.2932L68.3401 67.1252C68.3674 67.3205 68.3167 67.5158 68.1995 67.6721C68.0823 67.8283 67.9065 67.9299 67.7151 67.9572L36.5551 72.4103C36.352 72.4377 36.1489 72.383 35.9887 72.2541C35.8285 72.1252 35.7309 71.9338 35.7192 71.7306C35.7035 71.5236 35.684 71.3166 35.6528 71.1056C35.4184 69.4767 34.7231 68.0314 33.7114 66.8829L24.0083 67.6173C23.813 67.6329 23.6215 67.5704 23.4731 67.4415C23.3247 67.3165 23.2348 67.1368 23.2192 66.9415L23.1059 65.4415C20.5473 67.1251 19.0473 70.1837 19.5121 73.4103C19.5395 73.6213 19.5785 73.8283 19.6215 74.0314C19.6684 74.2306 19.6254 74.4377 19.5082 74.6056C19.3949 74.7775 19.2113 74.8869 19.0082 74.9181L9.50821 76.2736C9.10587 76.3322 8.73477 76.051 8.67618 75.6486L0.359781 17.4416C0.332437 17.2502 0.383218 17.0549 0.500401 16.8987C0.617584 16.7424 0.793371 16.6409 0.984781 16.6096L19.2118 14.008L18.618 6.15641C18.6024 5.965 18.6649 5.76969 18.7938 5.62516C18.9188 5.47672 19.1024 5.38297 19.2938 5.37125L34.8838 4.18765C35.0908 4.17203 35.2979 4.24624 35.4463 4.39077C35.5986 4.5353 35.6807 4.73843 35.6729 4.94936C35.6651 5.15639 35.669 5.36342 35.6885 5.57827C35.9229 8.68377 38.6338 11.0119 41.7393 10.7775C44.8487 10.5431 47.1768 7.83217 46.9424 4.72277C46.9268 4.51183 46.8994 4.3048 46.8604 4.10168C46.8213 3.89465 46.8721 3.68371 47.001 3.51574C47.126 3.35168 47.3174 3.24621 47.5283 3.23058L80.0779 0.76612ZM19.3239 15.4771L1.92189 17.9654L10.0274 74.7154L18.0469 73.5709C17.4883 69.4967 19.5664 65.6607 22.9805 63.8053L19.3239 15.4771ZM34.5509 65.6221C35.8751 67.0088 36.797 68.8096 37.1017 70.8487L66.7777 66.6065L66.4652 64.4034L52.2542 65.4815C52.0472 65.4971 51.8479 65.4268 51.6956 65.2862C51.5472 65.1456 51.4612 64.9503 51.4612 64.7472C51.4612 64.5323 51.4534 64.3136 51.4378 64.0948C51.0823 59.4229 47.012 55.9268 42.3401 56.2784C37.6721 56.6339 34.1721 60.7042 34.5276 65.3761C34.5354 65.4581 34.5392 65.5401 34.5509 65.6221ZM33.0587 65.4581C32.6602 59.9893 36.7618 55.2281 42.2306 54.8131C47.6994 54.3981 52.4726 58.4889 52.9026 63.9576L83.9456 61.606L79.4534 2.28996L48.4104 4.64156C48.6916 8.54776 45.7581 11.9502 41.8518 12.2471C37.9416 12.54 34.5315 9.61816 34.2229 5.71586L20.1409 6.78226L24.6292 66.0983L33.0587 65.4581ZM75.6407 8.23906C75.5235 6.69216 74.1759 5.53206 72.629 5.64926C71.0821 5.76645 69.922 7.11406 70.0392 8.66096C70.1564 10.2079 71.504 11.368 73.0509 11.2508C74.5978 11.1336 75.7579 9.78596 75.6407 8.23906ZM72.5157 4.18436C74.8712 4.00467 76.9298 5.77026 77.1055 8.12576C77.2852 10.4852 75.5196 12.5399 73.1641 12.7156C70.8047 12.8953 68.75 11.1297 68.5743 8.77416C68.3946 6.41866 70.1602 4.36006 72.5157 4.18436ZM69.3204 18.6684C69.086 15.559 66.3751 13.2309 63.2696 13.4653C60.1602 13.7035 57.8321 16.4106 58.0665 19.52C58.3009 22.6294 61.0118 24.9575 64.1212 24.7231C67.2267 24.4848 69.5587 21.7778 69.3204 18.6684ZM63.1563 12.0004C67.0743 11.7035 70.4922 14.6371 70.7891 18.5551C71.086 22.4731 68.1485 25.891 64.2305 26.1879C60.3125 26.4848 56.8946 23.5473 56.6016 19.6332C56.3047 15.7152 59.2383 12.2973 63.1563 12.0004ZM35.2893 19.8246C35.1135 17.4965 33.0823 15.7504 30.7581 15.9301C28.43 16.1058 26.6839 18.1332 26.8597 20.4613C27.0394 22.7894 29.0667 24.5316 31.3949 24.3558C33.7231 24.18 35.4651 22.1488 35.2893 19.8246ZM30.6448 14.4613C33.7815 14.223 36.5198 16.5746 36.7581 19.7113C36.9925 22.848 34.6448 25.5863 31.5042 25.8246C28.3675 26.0589 25.6331 23.7113 25.3948 20.5707C25.1565 17.434 27.5081 14.6996 30.6448 14.4613ZM57.6718 33.7663C57.3163 29.0983 53.246 25.5983 48.5741 25.9538C43.9061 26.3053 40.4061 30.3796 40.7616 35.0476C41.1131 39.7156 45.1874 43.2156 49.8554 42.8601C54.5234 42.5085 58.0234 38.4382 57.6718 33.7663ZM48.4648 24.4851C53.9453 24.071 58.7228 28.1765 59.1368 33.657C59.5508 39.1336 55.4454 43.915 49.9649 44.329C44.4883 44.743 39.7069 40.6376 39.2929 35.1571C38.8788 29.6805 42.9843 24.8991 48.4648 24.4851ZM17.2808 29.532C16.9644 27.3172 14.9136 25.7781 12.6988 26.0945C10.484 26.4109 8.94489 28.4617 9.26129 30.6765C9.5777 32.8913 11.6285 34.4304 13.8433 34.114C16.0581 33.7976 17.5972 31.7429 17.2808 29.532ZM12.4917 24.6375C15.5073 24.2078 18.3042 26.3055 18.7378 29.3211C19.1675 32.3406 17.0698 35.1375 14.0503 35.5672C11.0347 36.0008 8.23779 33.9031 7.80419 30.8836C7.3745 27.8641 9.47219 25.0672 12.4917 24.6375ZM77.8867 37.9225C77.6523 34.8131 74.9414 32.485 71.832 32.7194C68.7265 32.9576 66.3984 35.6686 66.6328 38.7741C66.8672 41.8835 69.5781 44.2116 72.6875 43.9772C75.793 43.7428 78.125 41.0319 77.8867 37.9225ZM71.7226 31.2545C75.6406 30.9576 79.0585 33.8951 79.3554 37.8131C79.6523 41.7311 76.7148 45.1451 72.7968 45.442C68.8788 45.7389 65.4609 42.8053 65.164 38.8873C64.871 34.9693 67.8046 31.5514 71.7226 31.2545ZM36.8396 40.3209C36.7536 39.1647 35.7458 38.2975 34.5896 38.3834C33.4334 38.4732 32.5662 39.4811 32.6521 40.6373C32.7419 41.7935 33.7498 42.6607 34.906 42.5709C36.0622 42.4849 36.9294 41.4771 36.8396 40.3209ZM34.4763 36.9186C36.4451 36.7701 38.1599 38.2428 38.3083 40.2077C38.4567 42.1765 36.9841 43.8913 35.0153 44.0397C33.0505 44.1881 31.3356 42.7155 31.1872 40.7467C31.0387 38.7819 32.5114 37.067 34.4763 36.9186ZM34.8161 51.1376C34.6403 48.8095 32.613 47.0634 30.2849 47.2392C27.9568 47.4189 26.2107 49.4462 26.3904 51.7744C26.5662 54.1025 28.5935 55.8447 30.9216 55.6689C33.2497 55.4931 34.9919 53.4618 34.8161 51.1376ZM30.1716 45.7743C33.3083 45.536 36.0466 47.8876 36.2849 51.0243C36.5193 54.161 34.1716 56.8993 31.0349 57.1337C27.8943 57.3719 25.1599 55.0204 24.9216 51.8837C24.6833 48.747 27.0349 46.0126 30.1716 45.7743ZM51.7806 49.8524C51.6634 48.3055 50.3118 47.1454 48.765 47.2626C47.2181 47.3798 46.0619 48.7274 46.1791 50.2743C46.2963 51.8212 47.6439 52.9813 49.1908 52.8641C50.7377 52.7469 51.8978 51.3993 51.7806 49.8524ZM48.6556 45.7977C51.0111 45.618 53.0658 47.3836 53.2454 49.7391C53.4251 52.0985 51.6595 54.1532 49.3001 54.3289C46.9446 54.5086 44.8899 52.743 44.7103 50.3875C44.5345 48.0281 46.3001 45.9734 48.6556 45.7977ZM71.7846 51.1805C71.6049 48.8524 69.5776 47.1102 67.2494 47.286C64.9213 47.4617 63.1791 49.4891 63.3549 51.8172C63.5307 54.1453 65.5619 55.8875 67.8861 55.7117C70.2142 55.5359 71.9604 53.5086 71.7846 51.1805ZM67.1401 45.8172C70.2768 45.5789 73.0112 47.9305 73.2495 51.0672C73.4878 54.2078 71.1362 56.9422 67.9995 57.1805C64.8628 57.4187 62.1245 55.0672 61.8901 51.9305C61.6518 48.7899 63.9995 46.0555 67.1401 45.8172ZM18.8281 59.6962C18.5117 57.4814 16.4609 55.9423 14.2461 56.2587C12.0313 56.5751 10.4922 58.6298 10.8086 60.8446C11.125 63.0555 13.1758 64.5946 15.3906 64.2782C17.6054 63.9618 19.1445 61.911 18.8281 59.6962ZM14.039 54.8056C17.0546 54.372 19.8515 56.4697 20.2851 59.4892C20.7148 62.5087 18.6171 65.3056 15.5976 65.7353C12.582 66.1689 9.78513 64.0712 9.35153 61.0517C8.92184 58.0322 11.0195 55.2353 14.039 54.8056Z" fill="black"/>
</svg>
