<svg xmlns="http://www.w3.org/2000/svg" xmlns:xlink="http://www.w3.org/1999/xlink" xmlns:xodm="http://www.corel.com/coreldraw/odm/2003" xml:space="preserve" version="1.1" style="shape-rendering:geometricPrecision;text-rendering:geometricPrecision;image-rendering:optimizeQuality;" viewBox="0 0 39370.08 49212.600000000006" x="0px" y="0px" fill-rule="evenodd" clip-rule="evenodd"><defs><style type="text/css">
   
    .fil0 {fill:black;fill-rule:nonzero}
   
  </style></defs><g><path class="fil0" d="M20064.56 18657.02c205.53,-73.65 317.51,238.86 111.98,312.5 -1055.16,380.85 -1651.69,311.36 -1686.48,1578.81 -52.11,1898.25 -69.99,3834.18 107.37,5725.95 98.5,1050.69 29.87,1250.59 996.13,1702.08 1612.86,753.63 3297.2,1436.25 5006.37,1938.34 956.85,281.09 1281.64,275.37 2219.07,-63.75 3101.85,-1122.1 6367.96,-2714.75 9163.57,-4465.37 1180.02,-738.78 1318.79,-825.67 1339.35,-2289.33l64.59 -4595.88c21.15,-1504.71 -390.41,-1521.24 -1807.6,-1910.23 -210.66,-57.37 -123.44,-377.69 87.24,-320.31 1558.48,427.76 2076.13,545.84 2052.4,2234.45l-64.59 4595.88c-23.11,1644.78 -178.06,1741.79 -1495.6,2566.68 -2816.15,1763.49 -6101.43,3366.28 -9226.07,4496.63 -1004.98,363.55 -1400.63,371.5 -2426.1,70.26 -1725.22,-506.81 -3425.24,-1195.86 -5053.25,-1956.57 -1096.01,-512.12 -1076.39,-801.23 -1186.24,-1972.92 -178.57,-1904.71 -161.14,-3853.77 -108.67,-5765.02 40.36,-1470.47 718.04,-1453.21 1906.54,-1882.2zm-7091.87 -6584.19c0,654.92 -1050.69,654.91 -1050.69,0 0,-283.7 -2.89,-567.46 -4.86,-851.16 -856.56,446.97 -1786.68,837.11 -2670.98,1208.03 -646.67,271.24 -1268.56,532.1 -1813.95,794.89 -1159.61,558.74 -657.04,324.06 170.33,194.91 1040.89,-162.46 2211.82,-136.65 3045.02,-42 1060.79,120.5 2236.76,746.87 2964.66,1516.78 280.05,296.22 534.36,656.56 654.87,1048.91 115.98,377.63 100.21,755.28 -92.81,1104.26 -108.08,195.39 -141.23,193.89 88.3,40.3 277.6,-185.76 502.09,-384.67 704.75,-578.01 976.52,-931.67 2079.89,-1827.83 3270.03,-2471.83 1041,-563.31 1416.16,-1306.5 1347.78,-2034.93 -94.55,-1007.1 -975.08,-1865.19 -1829.32,-2311.05 -1141.84,-595.99 -2617.76,-709.63 -3842.66,185.14 -320.32,233.99 -607.98,517.49 -931.76,755.12 -2.89,480.11 -8.72,960.56 -8.72,1440.64zm-1058.07 -1226.12c-4.23,-659.13 -8.51,-1501.79 -8.51,-2354.27 0,-3455.21 80.31,-8078.14 541.24,-8078.14 460.93,0 541.24,4622.93 541.24,8078.14 0,597.33 -2.11,1189.86 -4.82,1717.79 254.93,-204.79 505.39,-439.71 771.2,-629.35 1332.46,-950.61 2923.39,-825.81 4154.5,-183.23 960.51,501.34 1900.59,1448.23 2006.41,2575.38 80.39,856.3 -342.3,1720.04 -1520.96,2357.84 -1162.16,628.87 -2244.86,1509.99 -3198.41,2419.76 -285.37,272.26 -612.9,555.65 -1065.92,806.52 -700.67,387.99 -1522.38,591.34 -2320.6,670.32 -853.23,84.43 -1995.89,67.58 -3005.52,-120.07 -1086.96,-202.02 -2032.61,-605.26 -2345.2,-1298.58 -96.18,-213.33 -149.55,-414.71 -165.72,-604.04 -551.71,300.08 -916.34,178.86 -1083.43,-444.72 -564.39,-2106.43 2421.31,-3014.43 3907.14,-3637.65 932.83,-391.27 1916.89,-804.05 2797.37,-1275.7zm724.73 1226.12c0,-1193.05 15.89,-2386.73 15.89,-3580.39 0,-3312.64 -30.85,-7573.89 -207.9,-7573.89 -177.05,0 -207.9,4261.26 -207.9,7573.89 0,1193.61 15.89,2387.31 15.89,3580.39 0,212.94 384.01,212.95 384.01,0zm15172.78 2755.91c0,654.93 -1092.01,654.91 -1092.01,0 0,-159.82 -1.61,-358.3 -4.04,-627.33 -646.41,304.41 -1321.77,586.01 -1975.28,858.5 -1083.67,451.85 -2106.59,878.39 -2811.02,1330.42 572.67,-230.11 1276.06,-357.63 1983.24,-413.72 787.24,-62.44 1582.61,-36.75 2205.67,34.02 1158.71,131.62 2519.04,884.69 3226.92,1826.08 450.28,598.78 678,1353.5 195.87,2005.24 369.52,-218.61 649.52,-463 896.98,-699.08 976.51,-931.66 2079.91,-1827.83 3270.03,-2471.83 1428.52,-773 1796.57,-2050.51 784.07,-3320.87 -1261.58,-1582.89 -3703.19,-2043.79 -5316.92,-675.56 -408.45,346.31 -896.84,646.29 -1354,926.44 -3.63,409.12 -9.5,818.6 -9.5,1227.68zm-1099.39 -993.91c-8.57,-943.71 -21.09,-2423.2 -22.46,-4048.62 -0.79,-954.63 -43.56,-8966.53 575.85,-8966.53 627.28,0 577.27,8255.9 576.42,9033.18 -1.4,1241.03 -9.78,2438.63 -17.51,3355.5 384.99,-238.9 790.9,-495.26 1135.75,-787.65 1759.23,-1491.6 4414.2,-1006.53 5792.18,722.43 1141.89,1432.71 730.19,2945.81 -886.93,3820.87 -1162.17,628.87 -2244.85,1509.98 -3198.41,2419.75 -285.37,272.26 -612.89,555.66 -1065.92,806.52 -1504.01,832.84 -3722.4,848.31 -5326.13,550.24 -1014.69,-188.59 -1906.15,-552.57 -2274.51,-1164.14 -1468.44,-455.8 -1952.22,-2094.03 -686.37,-3149.73 716.26,-597.35 1962.01,-1116.78 3298.49,-1674.04 697.96,-291.02 1420.95,-592.49 2099.55,-917.79zm766.06 993.91c0,-1674.54 27.21,-3350.2 30.33,-5025.86 1.2,-645.6 23.41,-8412.36 -242.99,-8412.36 -262.16,0 -245.12,7543.18 -243.7,8379.02 2.86,1686.84 31.04,3373.41 31.04,5059.2 0,212.81 425.33,212.83 425.33,0zm-18789.62 1778.3c51.83,-180.63 411.17,-309.83 886.15,-480.61 630.68,-226.75 1493.24,-536.93 1930.6,-979.22 -608.28,-683.92 -1999.43,-694.15 -2820.24,-567.96 -692.29,106.43 -1747.92,430.82 -2007.57,1165.01 -92.09,260.39 -77.17,569.13 84.56,927.84 260.1,576.91 1112.2,924.56 2101.71,1108.47 996.62,185.23 2120.16,200.57 2939.59,115.83 747.66,-77.3 1701.39,-326.99 2078.67,-1009.11 146,-263.97 156.65,-553.8 66.77,-846.44 -39.97,-130.14 -99.5,-261.15 -175.75,-391.16 -154.35,100.35 -298.93,196.63 -437.07,288.64 -1179.44,781.96 -2648.16,1370.56 -4030.01,1087.99 -204.2,-41.76 -702.99,-120.96 -617.38,-419.28zm3029.6 -1020.83c-8.93,-196.32 -25.94,-151.74 -131.92,-65 -511.6,418.67 -1303.72,703.49 -1899.56,917.72 -103.41,37.18 -152.83,54.81 -238.87,86.06 -318.55,115.67 -379.06,123.3 -12.2,185.98 633.9,108.32 2322.65,-243.81 2282.55,-1124.76zm-188.64 965.51c570.28,-189.74 1038.01,-501.24 1622.84,-890.73 137.55,-91.61 281.38,-187.4 433.65,-286.48 -65.91,-85.33 -138.38,-169.63 -216.59,-252.35 -678.86,-718.04 -1773.31,-1301.96 -2758.93,-1413.91 -812.03,-92.24 -1950.49,-117.82 -2957.79,39.39 -1038.13,162.03 -2486.07,566.21 -2121.59,1926.49 140.81,525.52 394.08,391.58 785.43,126.94 208.92,-987.1 1439.2,-1415.97 2319.03,-1551.24 991.2,-152.39 3103.35,-77.31 3395.98,1185.75 96.55,416.73 -124.76,803.58 -502.05,1116.14zm1752.34 12578.41c-84.24,69.28 -189.71,-58.98 -105.46,-128.25l4233.74 -3480.2c84.24,-69.28 189.71,58.98 105.46,128.25l-4233.74 3480.2zm-10598.21 -2543.49c-103.62,-34.26 -51.54,-191.81 52.09,-157.55l8509.09 2825.81c103.62,34.26 51.54,191.81 -52.09,157.55l-8509.09 -2825.81zm9850.85 8220.16c0,109.62 -166.67,109.62 -166.67,0l0 -4406.04c0,-109.62 166.67,-109.62 166.67,0l0 4406.04zm-9347.07 -9672.54c196.96,-94.2 340.19,205.28 143.23,299.48 -1092.38,523.46 -1351.01,559.27 -1345.72,2006.19l-5.99 3702.08c-0.19,1109.81 213.93,1436 1258.79,1810.13l7886.87 2824.21c1059.33,379.36 1997.28,277.8 2825.44,-527.11l2046.81 -1989.35c156.72,-152.43 388.49,85.85 231.77,238.28l-2049.83 1992.3c-910.28,884.7 -1987,1021.92 -3162.69,600.94l-7902.58 -2829.83c-1176.77,-421.39 -1466.81,-879.97 -1466.61,-2119.56l5.99 -3702.08c-5.94,-1629.16 287.17,-1707.91 1534.53,-2305.67zm8230.21 -5260.89c-100.21,43.67 -166.6,-108.68 -66.41,-152.35l7662.16 -3351.76c100.21,-43.67 166.6,108.68 66.41,152.35l-7662.16 3351.76zm-6301.33 -1679.39c-101.48,-41.1 -38.99,-195.4 62.5,-154.3l4148.06 1684.11c101.48,41.1 38.99,195.4 -62.5,154.3l-4148.06 -1684.11zm5180.43 8380.43c0,109.62 -166.67,109.62 -166.67,0l0 -5704.06c0,-46.02 37.31,-83.33 83.33,-83.33 46.02,0 83.33,37.31 83.33,83.33l0 5704.06zm-5317.09 -10005.99c189.02,-109.48 355.69,178.28 166.67,287.76 -644.6,373.38 -1005.33,601.94 -1024.77,1413.59 -45.13,1885.3 -60.37,3797.55 93.38,5677.99 78.89,964.87 -10.06,1224.18 855.44,1687.86 1381.31,740.03 2836.54,1418.63 4322.88,1919.24 824.25,277.62 1088.7,270.4 1891.33,-62.51 1815.91,-753.2 3676.78,-1777.29 5367.65,-2780.63 188.17,-111.19 357.43,175.28 169.27,286.46 -1703.8,1011 -3579.56,2042.53 -5409.31,2801.46 -878.11,364.2 -1223.24,373.85 -2124.41,70.32 -1502.23,-505.97 -2977.53,-1193.42 -4373.66,-1941.38 -991.06,-530.95 -942.68,-871.93 -1031.22,-1954.79 -154.55,-1890.02 -138.76,-3816.8 -93.38,-5711.84 22.56,-942.35 438.69,-1258.27 1190.13,-1693.54zm15886.32 -522.96c0,219.23 -333.34,219.23 -333.34,0 0,-871.59 -306.48,-1154.31 -1075.38,-1496.59 -199.53,-89.06 -64.11,-392.45 135.42,-303.39 889.57,396 1273.3,792.84 1273.3,1799.98zm6134.64 3139.39c740.69,-246.44 1403.68,-752.4 2056.53,-1177.22 -660.81,-855.58 -1909.75,-1545.21 -2975.52,-1666.28 -604.4,-68.65 -1377.02,-93.49 -2143.17,-32.72 -744.97,59.09 -1480.52,198.76 -2041,457.43 -1254.68,579.04 -1270.32,1819.77 -74.78,2385.43 -229.64,-807.33 178.83,-1425.49 879.69,-1816.65 1204.4,-672.18 4299.81,-891.35 4780.78,666.85 149.98,485.85 -128.91,890.2 -482.52,1183.16zm2243.54 -902.04c-1323.24,860.33 -2619.63,1735.88 -4294.23,1389.81 -1018.73,-210.55 -2545.33,-1148.1 -1003.33,-1708.95l1979.94 -720.11c-923.78,-199.65 -2225.89,-85.39 -3062.72,381.65 -683.44,381.44 -964.74,938.96 -630.64,1680.02 260.1,576.91 1112.2,924.56 2101.71,1108.47 943.78,175.41 3761.89,465.97 4799.81,-600.78 447.67,-460.09 427.09,-988.49 109.46,-1530.09zm-2796.06 -875.25l-2332.05 848.18c-1101.4,306.86 179.28,900.22 986.5,1086.77 769.58,177.83 2330.68,-375.59 2062.88,-1243.17 -98.3,-318.45 -420.36,-561.27 -717.33,-691.78zm2304.89 14355.69c-35.41,29.12 -87.74,24.02 -116.86,-11.39 -29.12,-35.41 -24.02,-87.74 11.39,-116.86l4233.74 -3480.2c35.41,-29.12 87.74,-24.02 116.86,11.39 29.12,35.41 24.02,87.74 -11.39,116.86l-4233.74 3480.2zm-10598.21 -2543.49c-43.5,-14.38 -67.11,-61.31 -52.73,-104.82 14.38,-43.5 61.31,-67.11 104.82,-52.73l8509.09 2825.8c43.5,14.38 67.11,61.31 52.73,104.82 -14.38,43.5 -61.31,67.11 -104.82,52.73l-8509.09 -2825.8zm9850.85 8220.16c0,46.02 -37.31,83.33 -83.33,83.33 -46.02,0 -83.33,-37.31 -83.33,-83.33l0 -4406.04c0,-46.02 37.31,-83.33 83.33,-83.33 46.02,0 83.33,37.31 83.33,83.33l0 4406.04zm-10224 -9933.45c79.82,-45.3 181.26,-17.32 226.56,62.5 45.3,79.82 17.32,181.26 -62.5,226.56 -949.72,537.99 -886.96,1283.19 -883.33,2277.52l-5.99 3702.08c-0.17,1041.83 141,1373.53 1172.07,1779.29l8448.73 2884.5 1.3 0.65c527.43,183.26 1002.25,230.02 1439.4,147.7 434.2,-81.75 835.93,-292.08 1219.56,-623.54l5547.83 -5392.09c563.14,-563.28 603.8,-900.49 603.8,-1669.46l0 -3731.82 0.65 -5.21c5.07,-156.5 -13.8,-320.57 -83.29,-462.67 -95.91,-196.12 202.28,-341.94 298.18,-145.83 93.54,191.26 123.56,402.51 117.3,613.71l0.49 0 0 3731.82c0,861.83 -73.14,1275.81 -703.91,1906.3l-5552.37 5396.54 -7.16 6.51c-429.6,372.25 -883.94,609.19 -1379.89,702.57 -494.13,93.04 -1024.87,42.37 -1608.61,-160.26l-0.06 0.18 -8460.18 -2888.57c-1164.29,-457.4 -1386.07,-906.89 -1385.89,-2090.33l5.99 -3702.08c-4.15,-1134.05 -30.17,-1953.96 1051.3,-2566.58zm9165.07 -5589.22c-101.9,39.39 -161.8,-115.55 -59.9,-154.94l9074.72 -3522.28c101.9,-39.39 161.8,115.55 59.9,154.94l-9074.72 3522.28zm-7271.08 -1482.22c-103.61,-35.11 -50.24,-192.66 53.39,-157.55l4342.81 1487.27c103.61,35.11 50.24,192.66 -53.39,157.55l-4342.81 -1487.27zm5969.88 8378.8c0,109.62 -166.67,109.62 -166.67,0l0 -6097.76c0,-109.62 166.67,-109.62 166.67,0l0 6097.76z"/></g><text x="0" y="39385.08" fill="#000000" font-size="5px" font-weight="bold" font-family="'Helvetica Neue', Helvetica, Arial-Unicode, Arial, Sans-serif">Created by Oleksandr Panasovskyi</text><text x="0" y="39390.08" fill="#000000" font-size="5px" font-weight="bold" font-family="'Helvetica Neue', Helvetica, Arial-Unicode, Arial, Sans-serif">from the Noun Project</text></svg>