<svg width="97" height="73" viewBox="0 0 97 73" fill="none" xmlns="http://www.w3.org/2000/svg">
<path d="M48.1 0C21.5 0 0 9.8 0 21.9V50.9C0 58.1 7.6 64.5 19.4 68.5C20.5 68.9 22.4 68.4 23.4 67.8C26.5 66.1 35.1 60.4 35.1 60.4C35.1 60.4 35.1 65.4 35.1 69.6C35.1 71.1 35.4 71.8 36.9 72.1C40.6 72.8 44 72.7 48 72.7C74.6 72.7 96.1 62.9 96.1 50.8V21.8C96.2 9.8 74.7 0 48.1 0ZM36.2 29.3C34.9 31.5 35.1 34.3 35.1 38.4C35.1 42.5 35.1 56.4 35.1 56.4C35.1 56.4 25 63.1 23.3 63.8C21.6 64.5 20.5 64.2 20.5 61.7C20.5 59.3 20.5 31.9 20.5 29.5C20.5 27.1 20.2 25.4 23.1 24.3C26.1 23.2 44.5 16 44.5 16C44.5 16 37.5 27.1 36.2 29.3Z" fill="black"/>
</svg>
