<svg xmlns="http://www.w3.org/2000/svg" xmlns:xlink="http://www.w3.org/1999/xlink" version="1.1" x="0px" y="0px" viewBox="0 0 100 100" style="enable-background:new 0 0 100 100;" xml:space="preserve"><g><path d="M50,14.7c-26.6,0-48.1,9.8-48.1,21.9v29c0,7.2,7.6,13.6,19.4,17.6c1.1,0.4,3-0.1,4-0.7c3.1-1.7,11.7-7.4,11.7-7.4   s0,5,0,9.2c0,1.5,0.3,2.2,1.8,2.5c3.7,0.7,7.1,0.6,11.1,0.6c26.6,0,48.1-9.8,48.1-21.9v-29C98.1,24.5,76.6,14.7,50,14.7z M38.1,44   c-1.3,2.2-1.1,5-1.1,9.1c0,4.1,0,18,0,18s-10.1,6.7-11.8,7.4c-1.7,0.7-2.8,0.4-2.8-2.1c0-2.4,0-29.8,0-32.2c0-2.4-0.3-4.1,2.6-5.2   c3-1.1,21.4-8.3,21.4-8.3S39.4,41.8,38.1,44z"/></g></svg>