<svg width="92" height="62" viewBox="0 0 92 62" fill="none" xmlns="http://www.w3.org/2000/svg">
<path d="M87.7042 11.325L87.6802 11.346C82.5642 4.93999 66.0872 0.369995 45.9992 0.369995C25.9122 0.369995 9.43523 4.94099 4.31923 11.347L4.29523 11.326C-1.47877 18.107 -0.270769 39.804 1.80223 47.534C4.59323 57.938 27.3552 61.63 45.9992 61.63C64.6452 61.63 87.4072 57.938 90.1962 47.533C92.2712 39.804 93.4812 18.109 87.7042 11.325ZM45.9992 2.20799C70.8222 2.20799 87.4972 9.12799 87.4972 15.592C87.4972 22.056 70.8222 28.978 45.9992 28.978C21.1762 28.978 4.50223 22.057 4.50223 15.593C4.50223 9.12899 21.1762 2.20799 45.9992 2.20799ZM88.4212 47.057C86.4102 54.555 68.9662 59.791 45.9992 59.791C23.0342 59.791 5.58923 54.554 3.57723 47.057C2.03923 41.318 0.945231 26.872 3.20023 18.036C6.43723 25.371 24.0722 30.816 45.9992 30.816C67.9282 30.816 85.5622 25.371 88.8002 18.035C91.0562 26.872 89.9612 41.318 88.4212 47.057Z" fill="black"/>
</svg>
