<svg width="92" height="62" viewBox="0 0 92 62" fill="none" xmlns="http://www.w3.org/2000/svg">
<path d="M87.704 11.325L87.68 11.346C82.564 4.93999 66.087 0.369995 46 0.369995C25.913 0.369995 9.43601 4.93999 4.32001 11.346L4.29601 11.325C-1.48099 18.108 -0.27099 39.804 1.80401 47.533C4.59201 57.938 27.354 61.63 46 61.63C48.601 61.63 51.189 61.563 53.695 61.429L54.584 61.382L54.322 48.865L84.872 53.996L85.178 53.788C87.892 51.939 89.581 49.835 90.199 47.533C92.271 39.802 93.479 18.105 87.704 11.325ZM46 2.20799C70.823 2.20799 87.498 9.12799 87.498 15.592C87.498 16.927 86.814 18.267 85.48 19.578L44.416 14.469L51.55 28.843C49.716 28.925 47.861 28.977 46 28.977C21.177 28.977 4.50201 22.056 4.50201 15.592C4.50201 9.12799 21.177 2.20799 46 2.20799ZM46 59.792C23.032 59.792 5.58901 54.556 3.57901 47.058C2.03901 41.318 0.94401 26.873 3.20001 18.036C6.43701 25.371 24.072 30.816 46 30.816C48.047 30.816 50.091 30.757 52.103 30.66L52.709 59.638C50.514 59.74 48.262 59.792 46 59.792ZM53.921 29.682L53.917 29.476L47.584 16.716L85.036 21.376C85.557 24.131 87.333 35.848 83.935 51.975L54.283 46.995L53.921 29.682ZM88.423 47.057C88.079 48.335 87.287 49.559 86.074 50.718C89.191 34.632 87.314 23.357 86.809 20.848C87.718 19.945 88.384 19.01 88.802 18.05C91.053 26.886 89.961 41.32 88.423 47.057Z" fill="black"/>
<path d="M72.1889 39.347C70.2369 39.347 68.6479 40.936 68.6479 42.889C68.6479 44.842 70.2369 46.431 72.1889 46.431C74.1419 46.431 75.7319 44.842 75.7319 42.889C75.7319 40.936 74.1429 39.347 72.1889 39.347ZM72.1889 44.592C71.2509 44.592 70.4879 43.828 70.4879 42.889C70.4879 41.95 71.2509 41.186 72.1889 41.186C73.1279 41.186 73.8919 41.95 73.8919 42.889C73.8919 43.828 73.1289 44.592 72.1889 44.592Z" fill="black"/>
<path d="M61.553 21.03C57.825 21.03 54.793 24.063 54.793 27.791C54.793 31.519 57.825 34.551 61.553 34.551C65.281 34.551 68.313 31.518 68.313 27.791C68.313 24.063 65.28 21.03 61.553 21.03ZM61.553 32.712C58.84 32.712 56.633 30.504 56.633 27.791C56.633 25.078 58.84 22.869 61.553 22.869C64.266 22.869 66.473 25.077 66.473 27.791C66.473 30.505 64.266 32.712 61.553 32.712Z" fill="black"/>
<path d="M77.9449 26.832C76.2549 26.832 74.8789 28.207 74.8789 29.897C74.8789 31.587 76.2549 32.962 77.9449 32.962C79.6339 32.962 81.0089 31.587 81.0089 29.897C81.0089 28.207 79.6349 26.832 77.9449 26.832ZM77.9449 31.123C77.2679 31.123 76.7179 30.573 76.7179 29.897C76.7179 29.221 77.2679 28.671 77.9449 28.671C78.6209 28.671 79.1699 29.221 79.1699 29.897C79.1699 30.573 78.6209 31.123 77.9449 31.123Z" fill="black"/>
</svg>
